<svg xmlns="http://www.w3.org/2000/svg" width="635.182" height="635.182" viewBox="0 0 635.182 635.182"><g id="Grupo_26" data-name="Grupo 26" transform="translate(-253.545 -634.625)"><g id="Grupo_25" data-name="Grupo 25"><g id="Grupo_10" data-name="Grupo 10"><circle id="Elipse_1" data-name="Elipse 1" cx="317.591" cy="317.591" r="317.591" transform="translate(253.545 634.625)" fill="#bfbfbf"></circle></g><g id="Grupo_24" data-name="Grupo 24"><g id="Grupo_12" data-name="Grupo 12"><g id="Grupo_11" data-name="Grupo 11"><path id="Trazado_4" data-name="Trazado 4" d="M664.546,882.159a7.784,7.784,0,0,1-7.785-7.784v-7.784h-7.784a7.784,7.784,0,0,1,0-15.568h7.784v-7.784a7.785,7.785,0,0,1,15.569,0v7.784h7.784a7.784,7.784,0,0,1,0,15.568H672.33v7.784A7.784,7.784,0,0,1,664.546,882.159Z" fill="#ffeb99"></path></g></g><g id="Grupo_14" data-name="Grupo 14"><g id="Grupo_13" data-name="Grupo 13"><path id="Trazado_5" data-name="Trazado 5" d="M493.3,1053.409a7.784,7.784,0,0,1-7.785-7.784v-7.784h-7.784a7.784,7.784,0,1,1,0-15.568h7.784v-7.784a7.785,7.785,0,0,1,15.569,0v7.784h7.784a7.784,7.784,0,1,1,0,15.568H501.08v7.784A7.784,7.784,0,0,1,493.3,1053.409Z" fill="#ffeb99"></path></g></g><g id="Grupo_15" data-name="Grupo 15"><path id="Trazado_6" data-name="Trazado 6" d="M719.036,1123.466a7.783,7.783,0,0,1-5.506-2.28l-36.641-36.641H540a7.784,7.784,0,0,1-7.784-7.784V921.08A7.784,7.784,0,0,1,540,913.3H750.171a7.784,7.784,0,0,1,7.784,7.784v155.681a7.784,7.784,0,0,1-7.784,7.784H726.818v31.137a7.785,7.785,0,0,1-7.782,7.784Zm-171.252-54.489h132.33a7.784,7.784,0,0,1,5.5,2.28l25.632,25.632v-20.128a7.784,7.784,0,0,1,7.784-7.784h23.352V928.864h-194.6Z" fill="#f2f2f2"></path></g><g id="Grupo_16" data-name="Grupo 16"><path id="Trazado_7" data-name="Trazado 7" d="M715.575,975.568H578.921a7.784,7.784,0,1,1,0-15.568H715.575a7.784,7.784,0,0,1,0,15.568Z" fill="#f2f2f2"></path></g><g id="Grupo_17" data-name="Grupo 17"><path id="Trazado_8" data-name="Trazado 8" d="M715.575,1006.705H610.057a7.785,7.785,0,0,1,0-15.569H715.575a7.785,7.785,0,0,1,0,15.569Z" fill="#f2f2f2"></path></g><g id="Grupo_18" data-name="Grupo 18"><path id="Trazado_9" data-name="Trazado 9" d="M715.575,1037.841H594.489a7.784,7.784,0,1,1,0-15.568H715.575a7.784,7.784,0,1,1,0,15.568Z" fill="#f2f2f2"></path></g><g id="Grupo_19" data-name="Grupo 19"><path id="Trazado_10" data-name="Trazado 10" d="M423.239,1014.489a7.785,7.785,0,0,1-7.785-7.784V975.568H392.1a7.784,7.784,0,0,1-7.784-7.784V812.1a7.784,7.784,0,0,1,7.784-7.784H617.841a7.784,7.784,0,0,1,7.784,7.784v85.625a7.784,7.784,0,0,1-15.568,0V819.886H399.886V960h23.353a7.784,7.784,0,0,1,7.784,7.784v38.921A7.784,7.784,0,0,1,423.239,1014.489Z" fill="#f2f2f2"></path></g><g id="Grupo_20" data-name="Grupo 20"><path id="Trazado_11" data-name="Trazado 11" d="M423.239,1014.489a7.785,7.785,0,0,1-5.505-13.289l38.921-38.92a7.784,7.784,0,0,1,5.5-2.28h54.489a7.784,7.784,0,0,1,0,15.568H465.383l-36.64,36.641A7.759,7.759,0,0,1,423.239,1014.489Z" fill="#f2f2f2"></path></g><g id="Grupo_21" data-name="Grupo 21"><path id="Trazado_12" data-name="Trazado 12" d="M578.921,866.591h-147.9a7.784,7.784,0,1,1,0-15.568h147.9a7.784,7.784,0,0,1,0,15.568Z" fill="#f2f2f2"></path></g><g id="Grupo_22" data-name="Grupo 22"><path id="Trazado_13" data-name="Trazado 13" d="M563.352,897.727H431.023a7.784,7.784,0,1,1,0-15.568H563.352a7.784,7.784,0,0,1,0,15.568Z" fill="#f2f2f2"></path></g><g id="Grupo_23" data-name="Grupo 23"><path id="Trazado_14" data-name="Trazado 14" d="M516.648,928.864H431.023a7.785,7.785,0,0,1,0-15.569h85.625a7.785,7.785,0,0,1,0,15.569Z" fill="#f2f2f2"></path></g></g></g></g></svg>