<svg xmlns="http://www.w3.org/2000/svg" width="635" height="635" viewBox="0 0 635 635"><g id="Grupo_61" data-name="Grupo 61" transform="translate(-222.5 -642.5)"><g id="Grupo_52" data-name="Grupo 52"><circle id="Elipse_3" data-name="Elipse 3" cx="317.5" cy="317.5" r="317.5" transform="translate(222.5 642.5)" fill="#bfbfbf"></circle></g><g id="Grupo_55" data-name="Grupo 55"><g id="Grupo_53" data-name="Grupo 53"><path id="Trazado_36" data-name="Trazado 36" d="M541.638,1116.8a6.087,6.087,0,0,1-6.087-6.087V1002.562L378.168,967.588v48.931a6.087,6.087,0,1,1-12.174,0V960a6.087,6.087,0,0,1,7.407-5.942l169.558,37.679a6.087,6.087,0,0,1,4.766,5.942v113.038A6.087,6.087,0,0,1,541.638,1116.8Z" fill="#fff"></path></g><g id="Grupo_54" data-name="Grupo 54"><path id="Trazado_37" data-name="Trazado 37" d="M541.638,1097.965a6.088,6.088,0,0,1-6.087-6.087v-94.2a6.088,6.088,0,0,1,4.611-5.905L690.88,954.095A6.086,6.086,0,0,1,698.443,960v56.519a6.087,6.087,0,1,1-12.174,0V967.8l-138.544,34.636v89.446A6.087,6.087,0,0,1,541.638,1097.965Z" fill="#fff"></path></g></g><g id="Grupo_56" data-name="Grupo 56"><path id="Trazado_38" data-name="Trazado 38" d="M617,982.223a6.087,6.087,0,0,1-6.087-6.087v-69.7a69.271,69.271,0,0,0-138.543,0v69.7a6.087,6.087,0,1,1-12.174,0v-69.7a81.445,81.445,0,0,1,162.891,0v69.7A6.087,6.087,0,0,1,617,982.223Z" fill="#fff"></path></g><g id="Grupo_57" data-name="Grupo 57"><path id="Trazado_39" data-name="Trazado 39" d="M390.921,1116.8a6.087,6.087,0,0,1-6.087-6.087V1035.8a12.76,12.76,0,1,0-25.505,0v74.918a6.087,6.087,0,0,1-12.174,0V1035.8a25.521,25.521,0,0,1,24.785-25.365c.094,0,.188,0,.281,0a25.522,25.522,0,0,1,24.786,25.365v74.918A6.086,6.086,0,0,1,390.921,1116.8Z" fill="#fff"></path></g><g id="Grupo_58" data-name="Grupo 58"><path id="Trazado_40" data-name="Trazado 40" d="M711.2,1116.8a6.087,6.087,0,0,1-6.087-6.087V1035.8a12.76,12.76,0,1,0-25.5,0v74.918a6.087,6.087,0,0,1-12.174,0V1035.8a25.522,25.522,0,0,1,24.786-25.365c.093,0,.187,0,.281,0a25.522,25.522,0,0,1,24.786,25.365v74.918A6.087,6.087,0,0,1,711.2,1116.8Z" fill="#fff"></path></g><g id="Grupo_59" data-name="Grupo 59"><path id="Trazado_41" data-name="Trazado 41" d="M633.38,921.88H446.621a6.087,6.087,0,1,1,0-12.174H633.38a6.087,6.087,0,0,1,0,12.174Z" fill="#fff"></path></g><g id="Grupo_60" data-name="Grupo 60"><path id="Trazado_42" data-name="Trazado 42" d="M617,892.448H463a7.781,7.781,0,1,1,0-15.563H617a7.781,7.781,0,0,1,0,15.563Z" fill="#ffeb99"></path></g></g></svg>