<svg xmlns="http://www.w3.org/2000/svg" viewBox="0 0 635.18 635.18"><title>Recurso 7</title><circle cx="317.59" cy="317.59" r="317.59" style="fill:#bfbfbf"></circle><path d="M294.24,473.27H138.56a7.79,7.79,0,1,1,0-15.57H294.24a7.79,7.79,0,0,1,0,15.57Z" style="fill:#f2f2f2"></path><path d="M496.62,473.27H340.94a7.79,7.79,0,0,1,0-15.57H496.62a7.79,7.79,0,1,1,0,15.57Z" style="fill:#f2f2f2"></path><path d="M200.83,473.27a7.78,7.78,0,0,1-7.78-7.78V325.38a7.78,7.78,0,1,1,15.56,0V465.49A7.78,7.78,0,0,1,200.83,473.27Z" style="fill:#f2f2f2"></path><path d="M434.35,473.27a7.78,7.78,0,0,1-7.78-7.78V325.38a7.79,7.79,0,1,1,15.57,0V465.49A7.78,7.78,0,0,1,434.35,473.27Z" style="fill:#f2f2f2"></path><path d="M465.49,317.59a7.77,7.77,0,0,1-5.35-2.13l-142.55-135-142.54,135a7.78,7.78,0,1,1-10.71-11.3L312.24,164a7.78,7.78,0,0,1,10.7,0l147.9,140.12a7.78,7.78,0,0,1-5.35,13.43Z" style="fill:#f2f2f2"></path><path d="M411,185.26a7.78,7.78,0,0,1-7.78-7.78v-7.79h-7.79a7.78,7.78,0,0,1,0-15.56h7.79v-7.79a7.78,7.78,0,1,1,15.56,0v7.79h7.79a7.78,7.78,0,1,1,0,15.56h-7.79v7.79A7.78,7.78,0,0,1,411,185.26Z" style="fill:#ffeb99"></path><path d="M200.83,224.18a7.78,7.78,0,0,1-7.78-7.78v-7.79h-7.79a7.78,7.78,0,0,1,0-15.56h7.79v-7.79a7.78,7.78,0,0,1,15.56,0v7.79h7.79a7.78,7.78,0,0,1,0,15.56h-7.79v7.79A7.78,7.78,0,0,1,200.83,224.18Z" style="fill:#ffeb99"></path><path d="M340.94,403.22H325.37V337.05a11.69,11.69,0,0,1,11.68-11.67h7.79a11.68,11.68,0,0,1,11,7.78h8.46V302h-8.46a11.69,11.69,0,0,1-11,7.79h-7.79A11.71,11.71,0,0,1,326,302h-30a33.22,33.22,0,0,0-14.75,3.48A32.82,32.82,0,0,0,263.1,335v.43a48.46,48.46,0,0,1,29.6-10.05h17.11v77.84H294.24V340.94H292.7a32.91,32.91,0,0,0-27.44,14.69,9.68,9.68,0,0,1-17.73-5.37V335a48.29,48.29,0,0,1,26.84-43.42,48.81,48.81,0,0,1,21.71-5.13h33.19a11.71,11.71,0,0,1,11,7.79h1.33a11.71,11.71,0,0,1,11-7.79h15.57a11.69,11.69,0,0,1,11.67,11.68v38.92a11.69,11.69,0,0,1-11.67,11.68H352.62a11.71,11.71,0,0,1-11-7.79h-.67Zm0-66.17h0Zm-15.57-38.92h0Zm15.57,0h0Z" style="fill:#f2f2f2"></path><path d="M340.94,473.27a7.78,7.78,0,0,1-7.78-7.78V411H302v54.49a7.79,7.79,0,0,1-15.57,0V403.22a7.79,7.79,0,0,1,7.79-7.79h46.7a7.79,7.79,0,0,1,7.79,7.79v62.27A7.78,7.78,0,0,1,340.94,473.27Z" style="fill:#f2f2f2"></path></svg>