<svg xmlns="http://www.w3.org/2000/svg" width="635" height="635" viewBox="0 0 635 635"><g id="Grupo_75" data-name="Grupo 75" transform="translate(-222.5 -642.5)"><g id="Grupo_62" data-name="Grupo 62"><path id="Trazado_43" data-name="Trazado 43" d="M540,642.5c175.35,0,317.5,142.15,317.5,317.5S715.35,1277.5,540,1277.5" fill="#bfbfbf"></path></g><g id="Grupo_63" data-name="Grupo 63"><path id="Trazado_44" data-name="Trazado 44" d="M540,1277.5c-175.35,0-317.5-142.15-317.5-317.5S364.65,642.5,540,642.5" fill="#bfbfbf"></path></g><g id="Grupo_74" data-name="Grupo 74"><g id="Grupo_64" data-name="Grupo 64"><path id="Trazado_45" data-name="Trazado 45" d="M464.388,1005.174A91.789,91.789,0,0,1,372.7,913.489V865.562a91.685,91.685,0,0,1,183.369,0v47.927A91.789,91.789,0,0,1,464.388,1005.174Zm0-219.123a79.6,79.6,0,0,0-79.511,79.511v47.927a79.511,79.511,0,0,0,159.022,0V865.562A79.6,79.6,0,0,0,464.388,786.051Z" fill="#fff"></path></g><g id="Grupo_65" data-name="Grupo 65"><path id="Trazado_46" data-name="Trazado 46" d="M503.3,868.76a7.781,7.781,0,0,1-7.781-7.781,26.573,26.573,0,0,0-26.543-26.543,7.782,7.782,0,0,1,0-15.564,42.153,42.153,0,0,1,42.105,42.107A7.781,7.781,0,0,1,503.3,868.76Z" fill="#ffeb99"></path></g><g id="Grupo_66" data-name="Grupo 66"><path id="Trazado_47" data-name="Trazado 47" d="M459.8,960.179A42.154,42.154,0,0,1,417.7,918.073a7.781,7.781,0,1,1,15.563,0A26.574,26.574,0,0,0,459.8,944.616a7.781,7.781,0,0,1,0,15.563Z" fill="#ffeb99"></path></g><g id="Grupo_67" data-name="Grupo 67"><path id="Trazado_48" data-name="Trazado 48" d="M479.951,1036.3H448.825a6.087,6.087,0,0,1-6.087-6.087v-28.735a6.087,6.087,0,1,1,12.174,0v22.649h18.952v-25.04a6.087,6.087,0,0,1,12.174,0v31.126A6.087,6.087,0,0,1,479.951,1036.3Z" fill="#fff"></path></g><g id="Grupo_68" data-name="Grupo 68"><path id="Trazado_49" data-name="Trazado 49" d="M464.393,1153.026a6.087,6.087,0,0,1-5.45-3.367l-4.752-9.505a54.691,54.691,0,0,1,0-48.687l7.768-15.536a42.348,42.348,0,0,0-2.636-42.341,6.087,6.087,0,0,1,10.129-6.753,54.55,54.55,0,0,1,3.4,54.539l-7.768,15.536a42.461,42.461,0,0,0,0,37.8l4.752,9.506a6.09,6.09,0,0,1-5.439,8.81Z" fill="#fff"></path></g><g id="Grupo_69" data-name="Grupo 69"><path id="Trazado_50" data-name="Trazado 50" d="M588.894,1060.883a91.719,91.719,0,0,1-89.324-70.928,6.087,6.087,0,1,1,11.86-2.746,79.848,79.848,0,0,0,27.649,43.965,78.636,78.636,0,0,0,49.815,17.535A79.6,79.6,0,0,0,668.4,969.2V921.271A79.538,79.538,0,0,0,551,851.353a6.087,6.087,0,1,1-5.81-10.7,91.71,91.71,0,0,1,135.39,80.615V969.2A91.789,91.789,0,0,1,588.894,1060.883Z" fill="#fff"></path></g><g id="Grupo_70" data-name="Grupo 70"><path id="Trazado_51" data-name="Trazado 51" d="M627.8,924.469a7.781,7.781,0,0,1-7.781-7.782,26.574,26.574,0,0,0-26.543-26.543,7.781,7.781,0,1,1,0-15.563,42.154,42.154,0,0,1,42.1,42.106A7.781,7.781,0,0,1,627.8,924.469Z" fill="#ffeb99"></path></g><g id="Grupo_71" data-name="Grupo 71"><path id="Trazado_52" data-name="Trazado 52" d="M584.31,1015.888A42.154,42.154,0,0,1,542.2,973.782a7.782,7.782,0,1,1,15.563,0,26.573,26.573,0,0,0,26.543,26.542,7.782,7.782,0,0,1,0,15.564Z" fill="#ffeb99"></path></g><g id="Grupo_72" data-name="Grupo 72"><path id="Trazado_53" data-name="Trazado 53" d="M604.457,1092.009H573.33a6.087,6.087,0,0,1-6.087-6.087v-28.735a6.087,6.087,0,1,1,12.174,0v22.648H598.37V1054.8a6.087,6.087,0,1,1,12.174,0v31.126A6.087,6.087,0,0,1,604.457,1092.009Z" fill="#fff"></path></g><g id="Grupo_73" data-name="Grupo 73"><path id="Trazado_54" data-name="Trazado 54" d="M591.9,1140.45a6.09,6.09,0,0,1-5.439-8.81,42.353,42.353,0,0,0-2.636-42.341,6.087,6.087,0,1,1,10.129-6.753,54.553,54.553,0,0,1,3.4,54.538A6.088,6.088,0,0,1,591.9,1140.45Z" fill="#fff"></path></g></g></g></svg>