<svg xmlns="http://www.w3.org/2000/svg" width="635.182" height="635.182" viewBox="0 0 635.182 635.182"><g id="Grupo_51" data-name="Grupo 51" transform="translate(-222.409 -642.409)"><g id="Grupo_27" data-name="Grupo 27"><circle id="Elipse_2" data-name="Elipse 2" cx="317.591" cy="317.591" r="317.591" transform="translate(222.409 642.409)" fill="#bfbfbf"></circle></g><g id="Grupo_50" data-name="Grupo 50"><g id="Grupo_28" data-name="Grupo 28"><path id="Trazado_15" data-name="Trazado 15" d="M360.571,1069.153a7.785,7.785,0,0,1-7.785-7.784h0V874.557a54.55,54.55,0,0,1,54.488-54.487,7.784,7.784,0,0,1,7.784,7.784v186.812a7.784,7.784,0,0,1-7.784,7.784,38.963,38.963,0,0,0-38.919,38.919h0A7.785,7.785,0,0,1,360.571,1069.153ZM399.49,836.419a38.988,38.988,0,0,0-31.135,38.138v148.715a54.4,54.4,0,0,1,31.135-15.836Z" fill="#fff"></path></g><g id="Grupo_29" data-name="Grupo 29"><path id="Trazado_16" data-name="Trazado 16" d="M407.274,1146.991a54.55,54.55,0,0,1-54.488-54.487v-31.135a7.785,7.785,0,0,1,15.569,0V1092.5a38.963,38.963,0,0,0,38.919,38.919,7.784,7.784,0,1,1,0,15.568Z" fill="#fff"></path></g><g id="Grupo_30" data-name="Grupo 30"><path id="Trazado_17" data-name="Trazado 17" d="M539.6,1146.991H407.274a7.784,7.784,0,1,1,0-15.568H539.6a7.784,7.784,0,1,1,0,15.568Z" fill="#fff"></path></g><g id="Grupo_31" data-name="Grupo 31"><path id="Trazado_18" data-name="Trazado 18" d="M718.627,1069.153a7.784,7.784,0,0,1-7.784-7.784,38.963,38.963,0,0,0-38.919-38.919,7.784,7.784,0,0,1-7.784-7.784V827.854a7.784,7.784,0,0,1,7.784-7.784,54.549,54.549,0,0,1,54.487,54.487v186.812h0A7.784,7.784,0,0,1,718.627,1069.153Zm-38.919-61.717a54.4,54.4,0,0,1,31.135,15.836V874.557a38.989,38.989,0,0,0-31.135-38.138Z" fill="#fff"></path></g><g id="Grupo_32" data-name="Grupo 32"><path id="Trazado_19" data-name="Trazado 19" d="M671.924,1146.991a7.784,7.784,0,1,1,0-15.568,38.963,38.963,0,0,0,38.919-38.919,7.784,7.784,0,1,1,15.568,0A54.549,54.549,0,0,1,671.924,1146.991Z" fill="#fff"></path></g><g id="Grupo_33" data-name="Grupo 33"><path id="Trazado_20" data-name="Trazado 20" d="M671.924,1146.991H539.6a7.784,7.784,0,1,1,0-15.568H671.924a7.784,7.784,0,1,1,0,15.568Z" fill="#fff"></path></g><g id="Grupo_34" data-name="Grupo 34"><path id="Trazado_21" data-name="Trazado 21" d="M718.627,1100.288a7.784,7.784,0,0,1-7.784-7.784v-31.135a7.784,7.784,0,1,1,15.568,0V1092.5A7.784,7.784,0,0,1,718.627,1100.288Z" fill="#fff"></path></g><g id="Grupo_35" data-name="Grupo 35"><path id="Trazado_22" data-name="Trazado 22" d="M671.924,882.341H617.438a7.784,7.784,0,0,1,0-15.568h54.486a7.784,7.784,0,0,1,0,15.568Z" fill="#fff"></path></g><g id="Grupo_36" data-name="Grupo 36"><path id="Trazado_23" data-name="Trazado 23" d="M555.167,882.341H407.274a7.784,7.784,0,1,1,0-15.568H555.167a7.784,7.784,0,0,1,0,15.568Z" fill="#fff"></path></g><g id="Grupo_47" data-name="Grupo 47"><g id="Grupo_37" data-name="Grupo 37"><path id="Trazado_24" data-name="Trazado 24" d="M640.789,1116.109H558.873a7.784,7.784,0,1,1,0-15.568h74.132V913.223H446.194v187.318h83.768a7.784,7.784,0,1,1,0,15.568H438.409a7.785,7.785,0,0,1-7.784-7.784V905.439a7.785,7.785,0,0,1,7.784-7.784h202.38a7.785,7.785,0,0,1,7.785,7.784v202.886A7.785,7.785,0,0,1,640.789,1116.109Z" fill="#fff"></path></g><g id="Grupo_38" data-name="Grupo 38"><path id="Trazado_25" data-name="Trazado 25" d="M594.086,999.1H555.167a7.784,7.784,0,0,1-7.784-7.784V936.827a7.783,7.783,0,0,1,7.784-7.783h38.919a7.783,7.783,0,0,1,7.784,7.783v54.487A7.784,7.784,0,0,1,594.086,999.1ZM562.951,983.53H586.3V944.611H562.951Z" fill="#fff"></path></g><g id="Grupo_39" data-name="Grupo 39"><path id="Trazado_26" data-name="Trazado 26" d="M640.789,1006.882H621.515a7.784,7.784,0,0,1-7.784-7.784V936.827a7.784,7.784,0,0,1,7.784-7.783h19.274a7.784,7.784,0,1,1,0,15.567H629.3v46.7h11.49a7.784,7.784,0,1,1,0,15.568Z" fill="#fff"></path></g><g id="Grupo_40" data-name="Grupo 40"><path id="Trazado_27" data-name="Trazado 27" d="M524.032,1014.666a7.785,7.785,0,0,1-7.785-7.784V905.439a7.784,7.784,0,0,1,15.569,0v101.443A7.785,7.785,0,0,1,524.032,1014.666Z" fill="#fff"></path></g><g id="Grupo_41" data-name="Grupo 41"><path id="Trazado_28" data-name="Trazado 28" d="M492.9,999.1H438.409a7.784,7.784,0,1,1,0-15.568h46.7V944.611h-46.7a7.784,7.784,0,1,1,0-15.567H492.9a7.783,7.783,0,0,1,7.784,7.783v54.487A7.784,7.784,0,0,1,492.9,999.1Z" fill="#fff"></path></g><g id="Grupo_42" data-name="Grupo 42"><path id="Trazado_29" data-name="Trazado 29" d="M524.032,1045.8H438.409a7.784,7.784,0,1,1,0-15.567h85.623a7.784,7.784,0,1,1,0,15.567Z" fill="#fff"></path></g><g id="Grupo_43" data-name="Grupo 43"><path id="Trazado_30" data-name="Trazado 30" d="M467.321,1092.5H438.409a7.784,7.784,0,1,1,0-15.567h21.127v-7.784H438.409a7.784,7.784,0,1,1,0-15.568h28.912a7.785,7.785,0,0,1,7.784,7.784v23.351A7.785,7.785,0,0,1,467.321,1092.5Z" fill="#fff"></path></g><g id="Grupo_44" data-name="Grupo 44"><path id="Trazado_31" data-name="Trazado 31" d="M617.438,1092.5H578.519a7.784,7.784,0,0,1-7.784-7.784V1045.8a7.784,7.784,0,0,1,7.784-7.784h38.919a7.784,7.784,0,0,1,7.784,7.784v38.919A7.784,7.784,0,0,1,617.438,1092.5ZM586.3,1076.937h23.351v-23.352H586.3Z" fill="#fff"></path></g><g id="Grupo_45" data-name="Grupo 45"><path id="Trazado_32" data-name="Trazado 32" d="M555.167,1076.937a7.784,7.784,0,0,1-7.784-7.784v-15.568a7.784,7.784,0,0,1,15.568,0v15.568A7.784,7.784,0,0,1,555.167,1076.937Z" fill="#fff"></path></g><g id="Grupo_46" data-name="Grupo 46"><path id="Trazado_33" data-name="Trazado 33" d="M601.87,1030.233H586.3a7.784,7.784,0,1,1,0-15.567H601.87a7.784,7.784,0,1,1,0,15.567Z" fill="#fff"></path></g></g><g id="Grupo_48" data-name="Grupo 48"><path id="Trazado_34" data-name="Trazado 34" d="M586.3,882.341a7.784,7.784,0,0,1-7.784-7.784v-7.784h-7.783a7.784,7.784,0,1,1,0-15.568h7.783v-7.784a7.784,7.784,0,0,1,15.568,0v7.784h7.784a7.784,7.784,0,1,1,0,15.568h-7.784v7.784A7.784,7.784,0,0,1,586.3,882.341Z" fill="#ffeb99"></path></g><g id="Grupo_49" data-name="Grupo 49"><path id="Trazado_35" data-name="Trazado 35" d="M477.328,827.854a7.785,7.785,0,0,1-7.784-7.784v-7.784h-7.783a7.784,7.784,0,1,1,0-15.568h7.783v-7.783a7.785,7.785,0,0,1,15.569,0v7.783H492.9a7.784,7.784,0,0,1,0,15.568h-7.783v7.784A7.785,7.785,0,0,1,477.328,827.854Z" fill="#ffeb99"></path></g></g></g></svg>