<svg xmlns="http://www.w3.org/2000/svg" viewBox="0 0 635.18 635.18"><title>Recurso 4</title><circle cx="317.59" cy="317.59" r="317.59" style="fill:#bfbfbf"></circle><path d="M161.91,247.53a7.78,7.78,0,0,1-7.78-7.78V232h-7.79a7.79,7.79,0,0,1,0-15.57h7.79v-7.79a7.78,7.78,0,0,1,15.56,0v7.79h7.79a7.79,7.79,0,0,1,0,15.57h-7.79v7.78A7.78,7.78,0,0,1,161.91,247.53Z" style="fill:#ffeb99"></path><path d="M208.61,185.26a7.78,7.78,0,0,1-7.78-7.78v-7.79h-7.78a7.78,7.78,0,1,1,0-15.56h7.78v-7.79a7.79,7.79,0,0,1,15.57,0v7.79h7.78a7.78,7.78,0,1,1,0,15.56H216.4v7.79A7.78,7.78,0,0,1,208.61,185.26Z" style="fill:#ffeb99"></path><path d="M481.06,381.34a7.92,7.92,0,0,1-7.92-7.91V177.61H333.29V325.38a7.92,7.92,0,0,1-15.83,0V169.69a7.91,7.91,0,0,1,7.92-7.91H481.06a7.91,7.91,0,0,1,7.91,7.91V373.43A7.91,7.91,0,0,1,481.06,381.34Z" style="fill:#fff"></path><path d="M302,271H239.75a7.92,7.92,0,0,1-7.68-9.84l15.57-62.27a7.93,7.93,0,0,1,7.68-6h31.13a7.92,7.92,0,0,1,7.68,6l15.57,62.27A7.92,7.92,0,0,1,302,271Zm-52.13-15.83h42l-11.61-46.44H261.5Z" style="fill:#fff"></path><path d="M200.83,495.7h-50.6a6.84,6.84,0,0,1-6.73-5.6l-11.68-62.27a6.86,6.86,0,0,1,6.74-8.12h62.27a6.86,6.86,0,0,1,0,13.71h-54l9.1,48.57h44.91a6.86,6.86,0,0,1,0,13.71Z" style="fill:#fff"></path><path d="M270.89,333.29a7.92,7.92,0,0,1-7.92-7.91V263.1a7.92,7.92,0,0,1,15.83,0v62.28A7.91,7.91,0,0,1,270.89,333.29Z" style="fill:#fff"></path><path d="M465.49,504.54A23.5,23.5,0,0,1,442,481.06V395.43a31.27,31.27,0,1,1,47,27v58.59A23.5,23.5,0,0,1,465.49,504.54ZM473.27,380a15.45,15.45,0,0,0-15.43,15.43v85.63a7.65,7.65,0,1,0,15.3,0V426.7a7.92,7.92,0,0,1,.13-15.83,15.44,15.44,0,1,0,0-30.87Z" style="fill:#fff"></path><path d="M216.4,504.54a23.51,23.51,0,0,1-23.49-23.48V422.47a31.27,31.27,0,1,1,47-27v85.63A23.5,23.5,0,0,1,216.4,504.54Zm-7.65-77.84v54.36a7.65,7.65,0,0,0,15.3,0V395.43a15.44,15.44,0,1,0-15.44,15.44,7.92,7.92,0,0,1,.14,15.83Z" style="fill:#fff"></path><path d="M449.92,450.05H239.75a7.92,7.92,0,1,1,0-15.83H449.92a7.92,7.92,0,1,1,0,15.83Z" style="fill:#fff"></path><path d="M449.92,426.7H232a7.92,7.92,0,1,1,0-15.83h218a7.92,7.92,0,1,1,0,15.83Z" style="fill:#fff"></path><path d="M465.49,381.34a7.92,7.92,0,0,1-7.92-7.91v-24a16.15,16.15,0,0,0-16.12-16.13h-201a16.15,16.15,0,0,0-16.13,16.13v22.66a7.92,7.92,0,1,1-15.83,0V349.42a32,32,0,0,1,32-32h201a32,32,0,0,1,31.95,32v24A7.91,7.91,0,0,1,465.49,381.34Z" style="fill:#fff"></path><path d="M449.92,489H232a7.92,7.92,0,1,1,0-15.83h218a7.92,7.92,0,1,1,0,15.83Z" style="fill:#fff"></path><path d="M340.94,426.7a7.91,7.91,0,0,1-7.91-7.92v-93.4a7.92,7.92,0,1,1,15.83,0v93.4A7.91,7.91,0,0,1,340.94,426.7Z" style="fill:#fff"></path><path d="M481.06,247.67H325.38a7.92,7.92,0,0,1,0-15.84H481.06a7.92,7.92,0,0,1,0,15.84Z" style="fill:#fff"></path><path d="M481.06,309.94H325.38a7.92,7.92,0,1,1,0-15.83H481.06a7.92,7.92,0,0,1,0,15.83Z" style="fill:#fff"></path><path d="M426.57,309.94a27.81,27.81,0,0,1-27-21.1l-4-16a7.92,7.92,0,0,1,7.68-9.84h46.7a7.92,7.92,0,0,1,7.68,9.84l-4,16A27.81,27.81,0,0,1,426.57,309.94ZM413.35,278.8l1.55,6.2a12,12,0,0,0,23.33,0l1.55-6.2Z" style="fill:#fff"></path><path d="M165.8,433.42a6.85,6.85,0,0,1-6.85-6.85,248.13,248.13,0,0,1,32.21-121.33l3.7-6.58a6.85,6.85,0,1,1,11.94,6.72L203.11,312a234.48,234.48,0,0,0-30.45,114.61A6.86,6.86,0,0,1,165.8,433.42Z" style="fill:#fff"></path><path d="M165.8,417.86A6.86,6.86,0,0,1,159,411V350.81a235.08,235.08,0,0,0-8.81-63.59,6.86,6.86,0,1,1,13.2-3.72,248.88,248.88,0,0,1,9.32,67.31V411A6.86,6.86,0,0,1,165.8,417.86Z" style="fill:#fff"></path><path d="M165.8,430.75A6.85,6.85,0,0,1,159,423.9c0-26.41-11.63-51.29-32.73-70a6.86,6.86,0,0,1,9.11-10.25c23.72,21.09,37.33,50.36,37.33,80.3A6.86,6.86,0,0,1,165.8,430.75Z" style="fill:#fff"></path><path d="M379.86,247.67a7.92,7.92,0,0,1-7.91-7.92V201H325.38a7.92,7.92,0,1,1,0-15.83h54.48a7.91,7.91,0,0,1,7.92,7.92v46.7A7.92,7.92,0,0,1,379.86,247.67Z" style="fill:#fff"></path><path d="M348.73,247.67a7.93,7.93,0,0,1-7.92-7.92v-46.7a7.92,7.92,0,1,1,15.83,0v46.7A7.92,7.92,0,0,1,348.73,247.67Z" style="fill:#fff"></path></svg>